<?xml version="1.0" standalone="no"?>
<!DOCTYPE svg PUBLIC "-//W3C//DTD SVG 20010904//EN"
 "http://www.w3.org/TR/2001/REC-SVG-20010904/DTD/svg10.dtd">
<svg version="1.0" xmlns="http://www.w3.org/2000/svg"
 width="1437.000000pt" height="1006.000000pt" viewBox="0 0 1437.000000 1006.000000"
 preserveAspectRatio="xMidYMid meet">

<g transform="translate(0.000000,1006.000000) scale(0.100000,-0.100000)"
fill="#000000" stroke="none">
<path d="M0 5030 l0 -5030 7185 0 7185 0 0 5030 0 5030 -7185 0 -7185 0 0
-5030z m5820 3582 c-422 -197 -604 -306 -880 -526 -186 -148 -483 -450 -610
-620 -19 -26 -53 -70 -75 -99 -52 -68 -85 -115 -85 -121 0 -3 -22 -38 -49 -78
-82 -121 -291 -505 -291 -534 0 -4 -11 -31 -25 -59 -26 -55 -73 -175 -81 -210
-3 -11 -10 -29 -14 -40 -5 -11 -18 -54 -30 -95 -12 -41 -26 -86 -31 -100 -5
-14 -11 -34 -14 -45 -40 -186 -41 -192 -50 -287 -7 -72 -6 -76 14 -83 30 -9
24 -70 -15 -145 -7 -14 -14 -39 -16 -55 -2 -17 -7 -33 -13 -37 -5 -4 -10 -17
-11 -30 -1 -13 -4 -30 -7 -38 -20 -58 -27 -129 -29 -295 -3 -281 2 -362 22
-350 19 12 25 -36 21 -190 -1 -44 3 -107 9 -140 6 -33 14 -79 17 -102 3 -24 9
-43 14 -43 5 0 6 -7 3 -15 -4 -8 -2 -21 4 -28 5 -6 10 -26 10 -44 0 -17 8 -52
16 -77 9 -26 16 -55 16 -66 0 -11 8 -43 19 -72 10 -29 33 -100 51 -158 46
-151 73 -212 185 -427 35 -67 61 -124 57 -128 -4 -3 -2 -9 3 -13 6 -4 26 -38
45 -76 50 -97 68 -128 78 -135 5 -3 12 -16 16 -28 4 -13 11 -23 16 -23 5 0 17
-14 26 -32 9 -17 27 -43 40 -57 13 -14 24 -31 24 -38 0 -7 12 -27 28 -45 15
-18 32 -40 37 -49 25 -40 49 -75 59 -84 6 -5 43 -50 81 -100 155 -200 511
-532 749 -699 96 -67 227 -156 230 -156 2 0 57 -30 122 -67 66 -36 151 -81
189 -98 39 -18 99 -46 135 -63 208 -97 476 -181 755 -236 362 -71 646 -88
1035 -61 52 4 58 3 30 -4 -60 -16 -296 -31 -479 -31 -1408 1 -2709 784 -3377
2033 -467 872 -580 1903 -312 2852 323 1146 1166 2091 2253 2524 100 40 150
54 85 23z m605 -742 c-3 -5 -11 -10 -16 -10 -6 0 -7 5 -4 10 3 6 11 10 16 10
6 0 7 -4 4 -10z m-552 -107 c-7 -2 -19 -2 -25 0 -7 3 -2 5 12 5 14 0 19 -2 13
-5z m1468 -139 c10 -13 10 -17 -2 -25 -17 -11 -21 -11 -38 0 -17 11 -7 41 12
41 8 0 20 -7 28 -16z m-1296 -122 c-4 -10 0 -13 14 -9 10 2 24 1 30 -3 29 -17
-96 -60 -163 -55 -56 3 -42 48 19 59 19 4 35 13 35 20 0 7 10 18 23 23 17 9
25 8 35 -5 7 -9 10 -23 7 -30z m61 -107 c-10 -7 -19 -25 -20 -38 -1 -16 -6
-23 -17 -20 -14 4 -14 7 0 38 10 22 23 34 36 34 19 0 19 0 1 -14z m-106 -9 c0
-8 6 -17 13 -19 6 -3 0 -6 -15 -6 -26 -1 -37 16 -21 32 11 12 23 8 23 -7z
m553 -20 c25 -19 22 -21 -29 -24 -46 -2 -47 -1 -29 18 21 23 33 24 58 6z
m-513 -30 c0 -3 -4 -8 -10 -11 -5 -3 -10 -1 -10 4 0 6 5 11 10 11 6 0 10 -2
10 -4z m-40 -56 c0 -5 -2 -10 -4 -10 -3 0 -8 5 -11 10 -3 6 -1 10 4 10 6 0 11
-4 11 -10z m390 -14 c0 -3 -4 -8 -10 -11 -5 -3 -10 -1 -10 4 0 6 5 11 10 11 6
0 10 -2 10 -4z m1830 -32 c0 -16 -16 -19 -25 -4 -8 13 4 32 16 25 5 -4 9 -13
9 -21z m-1725 -24 c-3 -5 -10 -10 -16 -10 -5 0 -9 5 -9 10 0 6 7 10 16 10 8 0
12 -4 9 -10z m-575 -4 c0 -2 -7 -6 -15 -10 -8 -3 -15 -1 -15 4 0 6 7 10 15 10
8 0 15 -2 15 -4z m-62 -24 c2 -7 -7 -12 -23 -12 -24 0 -26 2 -15 15 14 17 31
16 38 -3z m193 -21 c28 -13 49 -17 64 -11 38 14 88 16 92 3 3 -8 -5 -13 -19
-13 -12 -1 -36 -11 -52 -24 -25 -21 -27 -26 -16 -47 7 -13 20 -33 30 -44 19
-22 37 -106 19 -88 -10 10 -16 32 -18 60 -2 20 -52 73 -70 73 -10 0 -28 11
-41 25 -24 26 -38 27 -102 9 -13 -4 -18 0 -18 14 0 21 32 40 38 23 2 -6 8 -11
13 -11 6 0 7 5 3 12 -4 6 1 17 11 25 23 16 15 17 66 -6z m269 -31 c0 -5 -2
-10 -4 -10 -3 0 -8 5 -11 10 -3 6 -1 10 4 10 6 0 11 -4 11 -10z m-670 -40 c0
-5 -4 -10 -10 -10 -5 0 -10 5 -10 10 0 6 5 10 10 10 6 0 10 -4 10 -10z m154
-12 c9 -34 7 -38 -9 -32 -8 4 -15 12 -15 20 0 8 -6 14 -12 14 -9 0 -8 4 2 10
22 14 27 12 34 -12z m-614 -54 c-18 -21 -24 -10 -9 18 8 14 14 18 17 10 2 -7
-2 -19 -8 -28z m1330 26 c0 -5 -7 -10 -15 -10 -8 0 -15 5 -15 10 0 6 7 10 15
10 8 0 15 -4 15 -10z m-450 -10 c0 -5 -11 -10 -25 -10 -14 0 -25 5 -25 10 0 6
11 10 25 10 14 0 25 -4 25 -10z m710 -20 c0 -5 -4 -10 -10 -10 -5 0 -10 5 -10
10 0 6 5 10 10 10 6 0 10 -4 10 -10z m-1150 -49 c0 -10 -30 -24 -37 -17 -3 3
-2 9 2 15 8 13 35 15 35 2z m-266 -10 c7 -10 -32 -47 -40 -38 -3 3 -3 15 1 26
6 21 29 28 39 12z m-247 -37 c-15 -15 -27 -32 -27 -37 0 -7 -5 -6 -12 2 -11
10 -6 18 21 42 42 35 54 30 18 -7z m993 -3 c7 -14 7 -22 0 -26 -13 -8 -40 13
-40 31 0 21 28 17 40 -5z m2901 -44 c-8 -8 -16 -7 -27 5 -14 14 -14 15 11 10
19 -3 23 -8 16 -15z m-3551 -6 c0 -6 -4 -13 -10 -16 -5 -3 -10 1 -10 9 0 9 5
16 10 16 6 0 10 -4 10 -9z m721 -1 c5 0 9 -9 9 -20 0 -22 -20 -26 -38 -8 -18
18 -15 41 4 34 9 -3 20 -6 25 -6z m157 -78 c2 -7 -1 -12 -7 -12 -6 0 -11 7
-11 15 0 8 -7 15 -15 15 -8 0 -15 5 -15 11 0 14 42 -12 48 -29z m567 12 c22
-22 13 -27 -18 -11 -15 8 -24 17 -20 20 10 11 20 8 38 -9z m-1485 1 c0 -8 -34
-45 -42 -45 -15 0 -8 29 10 39 19 11 32 14 32 6z m-250 -15 c0 -5 -5 -10 -11
-10 -5 0 -7 5 -4 10 3 6 8 10 11 10 2 0 4 -4 4 -10z m1922 -62 c-9 -9 -15 -9
-24 0 -9 9 -7 12 12 12 19 0 21 -3 12 -12z m1628 -4 c0 -8 -4 -12 -10 -9 -5 3
-10 10 -10 16 0 5 5 9 10 9 6 0 10 -7 10 -16z m-3160 -54 c11 -7 7 -10 -18
-10 -20 0 -31 4 -27 10 8 13 26 13 45 0z m580 -20 c0 -5 -5 -10 -11 -10 -5 0
-7 5 -4 10 3 6 8 10 11 10 2 0 4 -4 4 -10z m460 -16 c0 -14 -12 -19 -23 -8 -9
9 4 35 14 28 5 -3 9 -12 9 -20z m190 16 c0 -5 -7 -10 -15 -10 -8 0 -15 5 -15
10 0 6 7 10 15 10 8 0 15 -4 15 -10z m1830 -20 c0 -5 -7 -7 -15 -4 -8 4 -15 8
-15 10 0 2 7 4 15 4 8 0 15 -4 15 -10z m-620 -60 c0 -5 -7 -10 -15 -10 -8 0
-15 5 -15 10 0 6 7 10 15 10 8 0 15 -4 15 -10z m175 -39 c-8 -13 -35 -15 -35
-2 0 5 8 11 18 13 21 5 26 2 17 -11z m345 9 c0 -5 -2 -10 -4 -10 -3 0 -8 5
-11 10 -3 6 -1 10 4 10 6 0 11 -4 11 -10z m-1200 -50 c0 -5 -4 -10 -10 -10 -5
0 -10 5 -10 10 0 6 5 10 10 10 6 0 10 -4 10 -10z m380 -4 c0 -7 7 -19 15 -26
21 -18 19 -41 -2 -33 -38 13 -60 73 -28 73 8 0 15 -6 15 -14z m416 -13 c17
-17 16 -18 -11 -21 -18 -2 -35 4 -49 17 l-20 21 31 0 c17 0 39 -8 49 -17z
m-436 -63 c0 -5 -2 -10 -4 -10 -3 0 -8 5 -11 10 -3 6 -1 10 4 10 6 0 11 -4 11
-10z m1635 0 c3 -5 1 -10 -4 -10 -6 0 -11 5 -11 10 0 6 2 10 4 10 3 0 8 -4 11
-10z m-2054 -77 c10 -3 19 -9 19 -14 0 -15 -21 -21 -35 -9 -13 10 -15 8 -15
-13 0 -14 7 -28 16 -31 10 -4 14 -15 12 -33 -2 -22 -8 -28 -28 -28 -16 0 -28
-8 -35 -23 -6 -12 -16 -20 -23 -17 -8 3 -17 5 -22 5 -8 0 2 26 61 160 20 45
25 51 27 31 2 -13 12 -26 23 -28z m-1679 -5 c-6 -6 -15 -9 -18 -5 -4 3 -4 14
0 23 5 13 9 15 18 6 9 -9 9 -15 0 -24z m414 17 c18 -14 18 -14 -11 -14 -16 0
-41 6 -55 14 l-25 14 36 1 c19 0 44 -7 55 -15z m3352 -12 c-2 -20 -9 -29 -25
-31 -26 -4 -31 19 -10 43 21 24 39 18 35 -12z m-1610 -33 c-2 -33 -7 -50 -16
-50 -9 0 -11 7 -7 19 4 13 0 23 -12 29 -17 10 -17 11 1 31 29 32 37 25 34 -29z
m1662 0 c0 -5 -2 -10 -4 -10 -3 0 -8 5 -11 10 -3 6 -1 10 4 10 6 0 11 -4 11
-10z m47 -12 c6 -13 16 -36 22 -52 11 -27 11 -28 -11 -22 -13 3 -29 6 -37 6
-11 0 -10 5 4 20 14 16 16 23 7 32 -14 14 -16 38 -4 38 5 0 13 -10 19 -22z
m-1301 -26 c-20 -21 -39 -7 -25 19 8 17 13 18 25 8 13 -11 13 -14 0 -27z
m-1806 8 c0 -5 -4 -10 -10 -10 -5 0 -10 5 -10 10 0 6 5 10 10 10 6 0 10 -4 10
-10z m1470 -10 c0 -5 -5 -10 -11 -10 -5 0 -7 5 -4 10 3 6 8 10 11 10 2 0 4 -4
4 -10z m106 -27 c-3 -8 -6 -19 -6 -24 0 -5 -4 -9 -10 -9 -5 0 -10 13 -10 30 0
22 4 28 16 23 8 -3 13 -12 10 -20z m54 23 c0 -3 -4 -8 -10 -11 -5 -3 -10 -1
-10 4 0 6 5 11 10 11 6 0 10 -2 10 -4z m2734 -12 c11 -27 7 -37 -9 -24 -16 14
-20 40 -6 40 5 0 12 -7 15 -16z m-2689 -22 c-3 -3 -11 0 -18 7 -9 10 -8 11 6
5 10 -3 15 -9 12 -12z m-1002 -50 c24 -21 21 -45 -5 -57 -29 -13 -77 -100 -77
-142 -1 -43 64 -133 97 -133 26 0 29 -22 6 -41 -15 -12 -16 -11 -10 9 6 18 4
22 -13 22 -12 0 -34 20 -59 56 -37 52 -40 60 -38 117 2 48 7 62 21 67 15 5 13
10 -16 42 -19 19 -41 37 -49 40 -26 8 7 36 48 41 47 4 72 -1 95 -21z m1057
-15 c27 -18 49 -36 49 -40 2 -19 -31 -17 -60 4 -22 16 -34 19 -37 11 -2 -7 -8
-9 -13 -6 -6 3 -6 11 2 20 9 11 8 15 -5 19 -9 3 -23 7 -32 10 -25 8 -4 27 23
20 13 -3 46 -20 73 -38z m-100 -25 c0 -13 -4 -20 -10 -17 -6 3 -10 -5 -10 -19
0 -14 4 -27 9 -30 5 -3 12 -18 16 -33 3 -15 11 -31 17 -34 6 -4 -2 -6 -17 -6
-30 0 -61 37 -51 62 6 16 -20 49 -45 57 -11 4 -10 10 4 31 10 15 24 27 32 27
8 0 15 4 15 10 0 5 9 2 20 -7 11 -10 20 -28 20 -41z m1560 31 c-1 -24 -50 -53
-50 -30 0 7 5 18 12 25 13 13 38 16 38 5z m-3920 -37 c0 -3 -4 -8 -10 -11 -5
-3 -10 -1 -10 4 0 6 5 11 10 11 6 0 10 -2 10 -4z m1882 -48 c-7 -7 -12 -8 -12
-2 0 14 12 26 19 19 2 -3 -1 -11 -7 -17z m738 7 c0 -8 -4 -15 -9 -15 -13 0
-22 16 -14 24 11 11 23 6 23 -9z m1244 -30 c3 -8 1 -15 -4 -15 -6 0 -10 7 -10
15 0 8 2 15 4 15 2 0 6 -7 10 -15z m-1404 -55 c0 -5 -4 -10 -10 -10 -5 0 -10
5 -10 10 0 6 5 10 10 10 6 0 10 -4 10 -10z m164 -40 c14 -5 26 -14 26 -20 0
-17 -26 -11 -45 10 -20 23 -17 24 19 10z m-640 -42 c-9 -14 -23 2 -17 18 4 12
8 13 14 3 4 -7 5 -17 3 -21z m856 7 c-7 -8 -17 -15 -23 -15 -5 0 -2 9 8 20 21
23 35 19 15 -5z m-351 -40 c36 -40 36 -51 2 -46 -21 2 -23 -1 -19 -23 3 -15 0
-31 -8 -37 -8 -6 -11 -15 -8 -20 3 -5 0 -9 -5 -9 -17 0 -13 80 4 86 22 9 18
41 -5 54 -11 6 -20 15 -20 20 0 21 28 9 59 -25z m-351 -50 c2 -16 -3 -20 -28
-21 -34 -1 -34 -1 -19 27 13 25 43 21 47 -6z m449 -31 c1 -27 -2 -34 -16 -34
-10 0 -24 7 -31 15 -9 11 -9 15 -1 15 6 0 16 12 22 26 12 33 23 24 26 -22z
m283 -4 c0 -4 -14 -10 -30 -14 -20 -4 -34 -14 -40 -31 -6 -15 -17 -25 -30 -25
-26 0 -25 4 8 48 41 56 54 63 75 45 9 -9 17 -19 17 -23z m-551 -55 c2 -11 10
-25 19 -31 11 -8 12 -13 3 -18 -7 -5 -20 -1 -30 8 -10 9 -26 16 -35 16 -12 0
-16 5 -12 16 3 9 6 20 6 26 0 18 45 3 49 -17z m531 -11 c0 -14 -21 -19 -33 -7
-9 9 13 34 24 27 5 -3 9 -12 9 -20z m-990 -14 c0 -5 -4 -10 -10 -10 -5 0 -10
5 -10 10 0 6 5 10 10 10 6 0 10 -4 10 -10z m1150 -20 c0 -5 -6 -10 -14 -10 -8
0 -18 5 -21 10 -3 6 3 10 14 10 12 0 21 -4 21 -10z m-1235 -10 c3 -5 2 -10 -4
-10 -5 0 -13 5 -16 10 -3 6 -2 10 4 10 5 0 13 -4 16 -10z m87 -162 c9 2 19 -2
22 -7 4 -6 14 -7 23 -4 11 4 14 2 11 -8 -8 -24 -98 -4 -98 22 0 6 6 7 13 2 6
-4 19 -6 29 -5z m157 -168 c6 -19 7 -39 2 -48 -6 -11 -10 -5 -16 25 -3 23 -17
51 -30 63 -14 13 -22 27 -19 32 8 13 50 -35 63 -72z m51 -65 c0 -17 -2 -18
-24 -9 -23 9 -20 24 4 24 11 0 20 -7 20 -15z m100 -45 c0 -5 -5 -10 -11 -10
-5 0 -7 5 -4 10 3 6 8 10 11 10 2 0 4 -4 4 -10z m630 -4 c0 -3 -4 -8 -10 -11
-5 -3 -10 -1 -10 4 0 6 5 11 10 11 6 0 10 -2 10 -4z m-719 -43 c13 -35 -8 -37
-26 -2 -15 29 -15 31 1 27 9 -1 20 -13 25 -25z m-2571 -523 c0 -5 -2 -10 -4
-10 -3 0 -8 5 -11 10 -3 6 -1 10 4 10 6 0 11 -4 11 -10z m-205 -20 c3 -5 1
-10 -4 -10 -6 0 -11 5 -11 10 0 6 2 10 4 10 3 0 8 -4 11 -10z m1788 -2174
c-23 -13 -37 8 -23 35 l13 22 12 -24 c11 -20 11 -25 -2 -33z m177 -176 c0 -5
-4 -10 -10 -10 -5 0 -10 5 -10 10 0 6 5 10 10 10 6 0 10 -4 10 -10z"/>
</g>
</svg>
